<svg width="24" height="24" viewBox="0 0 24 24" fill="none" xmlns="http://www.w3.org/2000/svg">
<path d="M16.1474 16.8508L16.6168 17.3201L21.5696 22.2727L22.2726 21.5697L17.3199 16.6172L16.8503 16.1477L17.2595 15.6247C18.5208 14.0126 19.2063 12.0248 19.2069 9.97791L16.1474 16.8508ZM16.1474 16.8508L15.6245 17.2597M16.1474 16.8508L15.6245 17.2597M15.6245 17.2597C14.0124 18.5203 12.0249 19.2054 9.97844 19.2058L15.6245 17.2597ZM9.97828 19.2058C4.89067 19.2057 0.75 15.0652 0.75 9.97791C0.75 4.89059 4.89075 0.75 9.97844 0.75C15.0661 0.75 19.2068 4.89049 19.2069 9.97773L9.97828 19.2058ZM18.2123 9.97791C18.2123 5.43654 14.5199 1.74448 9.97844 1.74448C5.43693 1.74448 1.74461 5.43654 1.74461 9.97791C1.74461 14.5193 5.43693 18.2113 9.97844 18.2113C14.5199 18.2113 18.2123 14.5193 18.2123 9.97791Z" fill="white" stroke="#BCBCBC" stroke-width="1.5"/>
</svg>
